<mxfile host="app.diagrams.net" modified="2021-01-26T07:27:59.571Z" agent="5.0 (Macintosh; Intel Mac OS X 10_15_7) AppleWebKit/537.36 (KHTML, like Gecko) Chrome/88.0.4324.96 Safari/537.36" etag="eT-PWR95X9RvFWfT1itW" version="14.2.7" type="github">
  <diagram id="C5RBs43oDa-KdzZeNtuy" name="Page-1">
    <mxGraphModel dx="988" dy="589" grid="1" gridSize="10" guides="1" tooltips="1" connect="1" arrows="1" fold="1" page="1" pageScale="1" pageWidth="827" pageHeight="1169" math="0" shadow="0">
      <root>
        <mxCell id="WIyWlLk6GJQsqaUBKTNV-0" />
        <mxCell id="WIyWlLk6GJQsqaUBKTNV-1" parent="WIyWlLk6GJQsqaUBKTNV-0" />
        <mxCell id="WIyWlLk6GJQsqaUBKTNV-2" value="" style="rounded=0;html=1;jettySize=auto;orthogonalLoop=1;fontSize=11;endArrow=block;endFill=0;endSize=8;strokeWidth=1;shadow=0;labelBackgroundColor=none;edgeStyle=orthogonalEdgeStyle;" parent="WIyWlLk6GJQsqaUBKTNV-1" source="WIyWlLk6GJQsqaUBKTNV-3" edge="1">
          <mxGeometry relative="1" as="geometry">
            <mxPoint x="414" y="170" as="targetPoint" />
            <Array as="points">
              <mxPoint x="414" y="130" />
              <mxPoint x="414" y="130" />
            </Array>
          </mxGeometry>
        </mxCell>
        <mxCell id="WIyWlLk6GJQsqaUBKTNV-3" value="Get List of Top20 Nodes" style="rounded=1;whiteSpace=wrap;html=1;fontSize=12;glass=0;strokeWidth=1;shadow=0;" parent="WIyWlLk6GJQsqaUBKTNV-1" vertex="1">
          <mxGeometry x="339" y="80" width="150" height="40" as="geometry" />
        </mxCell>
        <mxCell id="WIyWlLk6GJQsqaUBKTNV-4" value="For each node" style="rounded=0;html=1;jettySize=auto;orthogonalLoop=1;fontSize=11;endArrow=block;endFill=0;endSize=8;strokeWidth=1;shadow=0;labelBackgroundColor=none;edgeStyle=orthogonalEdgeStyle;exitX=0.5;exitY=1;exitDx=0;exitDy=0;" parent="WIyWlLk6GJQsqaUBKTNV-1" source="tvDGTtGMjyp61BlsNUUy-0" target="WIyWlLk6GJQsqaUBKTNV-10" edge="1">
          <mxGeometry y="40" relative="1" as="geometry">
            <mxPoint as="offset" />
            <mxPoint x="414" y="250" as="sourcePoint" />
          </mxGeometry>
        </mxCell>
        <mxCell id="WIyWlLk6GJQsqaUBKTNV-8" value="No" style="rounded=0;html=1;jettySize=auto;orthogonalLoop=1;fontSize=11;endArrow=block;endFill=0;endSize=8;strokeWidth=1;shadow=0;labelBackgroundColor=none;edgeStyle=orthogonalEdgeStyle;entryX=0.5;entryY=0;entryDx=0;entryDy=0;exitX=0;exitY=0.5;exitDx=0;exitDy=0;" parent="WIyWlLk6GJQsqaUBKTNV-1" source="WIyWlLk6GJQsqaUBKTNV-10" target="WIyWlLk6GJQsqaUBKTNV-11" edge="1">
          <mxGeometry x="0.2" y="-20" relative="1" as="geometry">
            <mxPoint as="offset" />
            <Array as="points">
              <mxPoint x="334" y="330" />
            </Array>
          </mxGeometry>
        </mxCell>
        <mxCell id="WIyWlLk6GJQsqaUBKTNV-9" value="Yes" style="edgeStyle=orthogonalEdgeStyle;rounded=0;html=1;jettySize=auto;orthogonalLoop=1;fontSize=11;endArrow=block;endFill=0;endSize=8;strokeWidth=1;shadow=0;labelBackgroundColor=none;exitX=1;exitY=0.5;exitDx=0;exitDy=0;" parent="WIyWlLk6GJQsqaUBKTNV-1" source="WIyWlLk6GJQsqaUBKTNV-10" target="WIyWlLk6GJQsqaUBKTNV-12" edge="1">
          <mxGeometry x="0.2" y="20" relative="1" as="geometry">
            <mxPoint as="offset" />
          </mxGeometry>
        </mxCell>
        <mxCell id="WIyWlLk6GJQsqaUBKTNV-10" value="&lt;font style=&quot;font-size: 11px&quot;&gt;Pods ranked in Top 5?&lt;/font&gt;" style="rhombus;whiteSpace=wrap;html=1;shadow=0;fontFamily=Helvetica;fontSize=12;align=center;strokeWidth=1;spacing=6;spacingTop=-4;" parent="WIyWlLk6GJQsqaUBKTNV-1" vertex="1">
          <mxGeometry x="364" y="280" width="100" height="100" as="geometry" />
        </mxCell>
        <mxCell id="tvDGTtGMjyp61BlsNUUy-5" style="edgeStyle=orthogonalEdgeStyle;rounded=0;orthogonalLoop=1;jettySize=auto;html=1;entryX=0.5;entryY=0;entryDx=0;entryDy=0;" edge="1" parent="WIyWlLk6GJQsqaUBKTNV-1" source="WIyWlLk6GJQsqaUBKTNV-11" target="tvDGTtGMjyp61BlsNUUy-3">
          <mxGeometry relative="1" as="geometry" />
        </mxCell>
        <mxCell id="WIyWlLk6GJQsqaUBKTNV-11" value="Gather All Pods&amp;nbsp;" style="rounded=1;whiteSpace=wrap;html=1;fontSize=12;glass=0;strokeWidth=1;shadow=0;" parent="WIyWlLk6GJQsqaUBKTNV-1" vertex="1">
          <mxGeometry x="274" y="400" width="120" height="40" as="geometry" />
        </mxCell>
        <mxCell id="tvDGTtGMjyp61BlsNUUy-6" style="edgeStyle=orthogonalEdgeStyle;rounded=0;orthogonalLoop=1;jettySize=auto;html=1;entryX=0.5;entryY=0;entryDx=0;entryDy=0;" edge="1" parent="WIyWlLk6GJQsqaUBKTNV-1" source="WIyWlLk6GJQsqaUBKTNV-12" target="tvDGTtGMjyp61BlsNUUy-4">
          <mxGeometry relative="1" as="geometry" />
        </mxCell>
        <mxCell id="WIyWlLk6GJQsqaUBKTNV-12" value="Gather All &lt;br&gt;Top-Ranked Pods&amp;nbsp;" style="rounded=1;whiteSpace=wrap;html=1;fontSize=12;glass=0;strokeWidth=1;shadow=0;" parent="WIyWlLk6GJQsqaUBKTNV-1" vertex="1">
          <mxGeometry x="434" y="400" width="120" height="40" as="geometry" />
        </mxCell>
        <mxCell id="tvDGTtGMjyp61BlsNUUy-0" value="Run Impact Model on all Top20 Nodes" style="rounded=1;whiteSpace=wrap;html=1;" vertex="1" parent="WIyWlLk6GJQsqaUBKTNV-1">
          <mxGeometry x="334" y="170" width="160" height="60" as="geometry" />
        </mxCell>
        <mxCell id="tvDGTtGMjyp61BlsNUUy-10" style="edgeStyle=orthogonalEdgeStyle;rounded=0;orthogonalLoop=1;jettySize=auto;html=1;entryX=0.5;entryY=0;entryDx=0;entryDy=0;" edge="1" parent="WIyWlLk6GJQsqaUBKTNV-1" source="tvDGTtGMjyp61BlsNUUy-3" target="tvDGTtGMjyp61BlsNUUy-8">
          <mxGeometry relative="1" as="geometry" />
        </mxCell>
        <mxCell id="tvDGTtGMjyp61BlsNUUy-3" value="Use oid to get all related APPs" style="rounded=1;whiteSpace=wrap;html=1;fontSize=12;glass=0;strokeWidth=1;shadow=0;" vertex="1" parent="WIyWlLk6GJQsqaUBKTNV-1">
          <mxGeometry x="274" y="480" width="120" height="40" as="geometry" />
        </mxCell>
        <mxCell id="tvDGTtGMjyp61BlsNUUy-11" style="edgeStyle=orthogonalEdgeStyle;rounded=0;orthogonalLoop=1;jettySize=auto;html=1;" edge="1" parent="WIyWlLk6GJQsqaUBKTNV-1" source="tvDGTtGMjyp61BlsNUUy-4" target="tvDGTtGMjyp61BlsNUUy-9">
          <mxGeometry relative="1" as="geometry" />
        </mxCell>
        <mxCell id="tvDGTtGMjyp61BlsNUUy-4" value="Use oid to get all related Pods" style="rounded=1;whiteSpace=wrap;html=1;fontSize=12;glass=0;strokeWidth=1;shadow=0;" vertex="1" parent="WIyWlLk6GJQsqaUBKTNV-1">
          <mxGeometry x="434" y="480" width="120" height="40" as="geometry" />
        </mxCell>
        <mxCell id="tvDGTtGMjyp61BlsNUUy-18" style="edgeStyle=orthogonalEdgeStyle;rounded=0;orthogonalLoop=1;jettySize=auto;html=1;exitX=1;exitY=0.5;exitDx=0;exitDy=0;" edge="1" parent="WIyWlLk6GJQsqaUBKTNV-1" source="tvDGTtGMjyp61BlsNUUy-8" target="tvDGTtGMjyp61BlsNUUy-13">
          <mxGeometry relative="1" as="geometry" />
        </mxCell>
        <mxCell id="tvDGTtGMjyp61BlsNUUy-20" style="edgeStyle=orthogonalEdgeStyle;rounded=0;orthogonalLoop=1;jettySize=auto;html=1;exitX=0;exitY=0.5;exitDx=0;exitDy=0;" edge="1" parent="WIyWlLk6GJQsqaUBKTNV-1" source="tvDGTtGMjyp61BlsNUUy-8" target="tvDGTtGMjyp61BlsNUUy-12">
          <mxGeometry relative="1" as="geometry" />
        </mxCell>
        <mxCell id="tvDGTtGMjyp61BlsNUUy-8" value="&lt;span&gt;Count duplicated occurence of APP in the same node&lt;/span&gt;" style="rhombus;whiteSpace=wrap;html=1;" vertex="1" parent="WIyWlLk6GJQsqaUBKTNV-1">
          <mxGeometry x="208" y="560" width="126" height="140" as="geometry" />
        </mxCell>
        <mxCell id="tvDGTtGMjyp61BlsNUUy-19" style="edgeStyle=orthogonalEdgeStyle;rounded=0;orthogonalLoop=1;jettySize=auto;html=1;entryX=0.5;entryY=0;entryDx=0;entryDy=0;exitX=0;exitY=0.5;exitDx=0;exitDy=0;" edge="1" parent="WIyWlLk6GJQsqaUBKTNV-1" source="tvDGTtGMjyp61BlsNUUy-9" target="tvDGTtGMjyp61BlsNUUy-14">
          <mxGeometry relative="1" as="geometry" />
        </mxCell>
        <mxCell id="tvDGTtGMjyp61BlsNUUy-21" style="edgeStyle=orthogonalEdgeStyle;rounded=0;orthogonalLoop=1;jettySize=auto;html=1;exitX=1;exitY=0.5;exitDx=0;exitDy=0;" edge="1" parent="WIyWlLk6GJQsqaUBKTNV-1" source="tvDGTtGMjyp61BlsNUUy-9" target="tvDGTtGMjyp61BlsNUUy-15">
          <mxGeometry relative="1" as="geometry" />
        </mxCell>
        <mxCell id="tvDGTtGMjyp61BlsNUUy-9" value="&lt;span&gt;Count duplicated occurence of APP in the same node&lt;/span&gt;" style="rhombus;whiteSpace=wrap;html=1;" vertex="1" parent="WIyWlLk6GJQsqaUBKTNV-1">
          <mxGeometry x="510" y="560" width="126" height="140" as="geometry" />
        </mxCell>
        <mxCell id="tvDGTtGMjyp61BlsNUUy-12" value="UnionAnalysis()" style="rounded=1;whiteSpace=wrap;html=1;" vertex="1" parent="WIyWlLk6GJQsqaUBKTNV-1">
          <mxGeometry x="130" y="740" width="99" height="50" as="geometry" />
        </mxCell>
        <mxCell id="tvDGTtGMjyp61BlsNUUy-13" value="ListAnalysis()" style="rounded=1;whiteSpace=wrap;html=1;" vertex="1" parent="WIyWlLk6GJQsqaUBKTNV-1">
          <mxGeometry x="310" y="740" width="99" height="50" as="geometry" />
        </mxCell>
        <mxCell id="tvDGTtGMjyp61BlsNUUy-14" value="UnionAnalysis()" style="rounded=1;whiteSpace=wrap;html=1;" vertex="1" parent="WIyWlLk6GJQsqaUBKTNV-1">
          <mxGeometry x="434" y="740" width="99" height="50" as="geometry" />
        </mxCell>
        <mxCell id="tvDGTtGMjyp61BlsNUUy-15" value="ListAnalysis()" style="rounded=1;whiteSpace=wrap;html=1;" vertex="1" parent="WIyWlLk6GJQsqaUBKTNV-1">
          <mxGeometry x="610" y="740" width="99" height="50" as="geometry" />
        </mxCell>
        <mxCell id="tvDGTtGMjyp61BlsNUUy-22" value="Count Duplicated" style="text;html=1;strokeColor=none;fillColor=none;align=center;verticalAlign=middle;whiteSpace=wrap;rounded=0;" vertex="1" parent="WIyWlLk6GJQsqaUBKTNV-1">
          <mxGeometry x="130" y="670" width="40" height="20" as="geometry" />
        </mxCell>
        <mxCell id="tvDGTtGMjyp61BlsNUUy-24" value="Count Duplicated" style="text;html=1;strokeColor=none;fillColor=none;align=center;verticalAlign=middle;whiteSpace=wrap;rounded=0;" vertex="1" parent="WIyWlLk6GJQsqaUBKTNV-1">
          <mxGeometry x="434" y="670" width="40" height="20" as="geometry" />
        </mxCell>
        <mxCell id="tvDGTtGMjyp61BlsNUUy-26" value="Don&#39;t Count Duplicated" style="text;html=1;strokeColor=none;fillColor=none;align=center;verticalAlign=middle;whiteSpace=wrap;rounded=0;" vertex="1" parent="WIyWlLk6GJQsqaUBKTNV-1">
          <mxGeometry x="310" y="670" width="40" height="20" as="geometry" />
        </mxCell>
        <mxCell id="tvDGTtGMjyp61BlsNUUy-27" value="Don&#39;t Count Duplicated" style="text;html=1;strokeColor=none;fillColor=none;align=center;verticalAlign=middle;whiteSpace=wrap;rounded=0;" vertex="1" parent="WIyWlLk6GJQsqaUBKTNV-1">
          <mxGeometry x="610" y="670" width="40" height="20" as="geometry" />
        </mxCell>
      </root>
    </mxGraphModel>
  </diagram>
</mxfile>
